{"title":"Pereval (1988) - Vladimir Tarassov","uid":9704535,"size":977597262,"categoryP":"video","categoryS":"movies","magnet":"?xt=urn:btih:a8a8101253d5c0111ae64dbf78aa9e734f8a98b0&amp;dn=Pereval+%281988%29+-+Vladimir+Tarassov&amp;tr=udp%3A%2F%2Ftracker.openbittorrent.com%3A80&amp;tr=udp%3A%2F%2Fopen.demonii.com%3A1337&amp;tr=udp%3A%2F%2Ftracker.coppersurfer.tk%3A6969&amp;tr=udp%3A%2F%2Fexodus.desync.com%3A6969","seeders":2,"leechers":0,"uploader":"cavallone","files":1,"time":1394048115,"description":"Plot: An animated short from Russia (adapted from a novel by Kir Bulychev) about space travelers surviving on a strange planet and the journey back to their abandoned ship through a dangerous mountain pass.\n\nRip specs:\n\nFormat                                   : Matroska\nFormat version                           : Version 2\nFile size                                : 932 MiB\nDuration                                 : 29mn 57s\nOverall bit rate                         : 4 351 Kbps\nEncoded date                             : UTC 2011-08-05 12:13:27\nWriting application                      : mkvmerge v3.0.0 ('Hang up your Hang-Ups') built on Dec 12 2009 15:20:35\nWriting library                          : libebml v0.7.9 + libmatroska v0.8.1\n\nVideo\nID                                       : 1\nFormat                                   : AVC\nFormat/Info                              : Advanced Video Codec\nFormat profile                           : &lt;a class=&quot;__cf_email__&quot; href=&quot;/cdn-cgi/l/email-protection&quot; data-cfemail=&quot;521a3b353a121e617c63&quot;&gt;[email&amp;#160;protected]&lt;/a&gt;&lt;script cf-hash='f9e31' type=&quot;text/javascript&quot;&gt;\n/* &lt;![CDATA[ */!function(){try{var t=&quot;currentScript&quot;in document?document.currentScript:function(){for(var t=document.getElementsByTagName(&quot;script&quot;),e=t.length;e--;)if(t[e].getAttribute(&quot;cf-hash&quot;))return t[e]}();if(t&amp;&amp;t.previousSibling){var e,r,n,i,c=t.previousSibling,a=c.getAttribute(&quot;data-cfemail&quot;);if(a){for(e=&quot;&quot;,r=parseInt(a.substr(0,2),16),n=2;a.length-n;n+=2)i=parseInt(a.substr(n,2),16)^r,e+=String.fromCharCode(i);e=document.createTextNode(e),c.parentNode.replaceChild(e,c)}}}catch(u){}}();/* ]]&gt; */&lt;/script&gt;\nFormat settings, CABAC                   : Yes\nFormat settings, ReFrames                : 9 frames\nCodec ID                                 : V_MPEG4/ISO/AVC\nDuration                                 : 29mn 57s\nBit rate                                 : 3 816 Kbps\nWidth                                    : 716 pixels\nHeight                                   : 576 pixels\nDisplay aspect ratio                     : 4:3\nFrame rate mode                          : Constant\nFrame rate                               : 25.000 fps\nColor space                              : YUV\nChroma subsampling                       : 4:2:0\nBit depth                                : 8 bits\nScan type                                : Progressive\nBits/(Pixel*Frame)                       : 0.370\nStream size                              : 818 MiB (88%)\nWriting library                          : x264 core 100 r1659 57b2e56\nEncoding settings                        : cabac=1 / ref=9 / deblock=1:1:1 / analyse=0x3:0x133 / me=umh / subme=10 / psy=1 / psy_rd=1.00:0.00 / mixed_ref=1 / me_range=64 / chroma_me=1 / trellis=2 / 8x8dct=1 / cqm=0 / deadzone=21,11 / fast_pskip=0 / chroma_qp_offset=-2 / threads=6 / sliced_threads=0 / nr=0 / decimate=1 / interlaced=0 / constrained_intra=0 / bframes=8 / b_pyramid=2 / b_adapt=2 / b_bias=0 / direct=3 / weightb=1 / open_gop=0 / weightp=2 / keyint=250 / keyint_min=25 / scenecut=40 / intra_refresh=0 / rc_lookahead=60 / rc=crf / mbtree=1 / crf=19.0 / qcomp=0.60 / qpmin=10 / qpmax=51 / qpstep=4 / ip_ratio=1.40 / aq=1:1.00\nLanguage                                 : English\nDefault                                  : No\nForced                                   : No\n\nAudio\nID                                       : 2\nFormat                                   : AC-3\nFormat/Info                              : Audio Coding 3\nMode extension                           : CM (complete main)\nFormat settings, Endianness              : Big\nCodec ID                                 : A_AC3\nDuration                                 : 29mn 57s\nBit rate mode                            : Constant\nBit rate                                 : 448 Kbps\nChannel(s)                               : 6 channels\nChannel positions                        : Front: L C R, Side: L R, LFE\nSampling rate                            : 48.0 KHz\nBit depth                                : 16 bits\nCompression mode                         : Lossy\nDelay relative to video                  : 148ms\nStream size                              : 96.0 MiB (10%)\nLanguage                                 : Russian\nDefault                                  : Yes\nForced                                   : No\n\nText\nID                                       : 3\nFormat                                   : UTF-8\nCodec ID                                 : S_TEXT/UTF8\nCodec ID/Info                            : UTF-8 Plain Text\nLanguage                                 : English\nDefault                                  : Yes\nForced                                   : No\n\n","torrent":{"xt":"urn:btih:a8a8101253d5c0111ae64dbf78aa9e734f8a98b0","amp;dn":"Pereval+%281988%29+-+Vladimir+Tarassov","amp;tr":["udp%3A%2F%2Ftracker.openbittorrent.com%3A80","udp%3A%2F%2Fopen.demonii.com%3A1337","udp%3A%2F%2Ftracker.coppersurfer.tk%3A6969","udp%3A%2F%2Fexodus.desync.com%3A6969"],"infoHash":"a8a8101253d5c0111ae64dbf78aa9e734f8a98b0","infoHashBuffer":{"type":"Buffer","data":[168,168,16,18,83,213,192,17,26,230,77,191,120,170,158,115,79,138,152,176]},"announce":[],"urlList":[]}}